<?xml version="1.0" encoding="UTF-8"?>
<svg width="550px" height="550px" viewBox="0 0 550 550" version="1.1" xmlns="http://www.w3.org/2000/svg" xmlns:xlink="http://www.w3.org/1999/xlink">
    <title>Hubspot</title>
    <g id="Page-1" stroke="none" stroke-width="1" fill="none" fill-rule="evenodd">
        <g id="Fixtures-Copy-5" transform="translate(-100, -100)">
            <g id="Hubspot" transform="translate(100, 100)">
                <path d="M275,0 C426.878306,0 550,123.121694 550,275 C550,426.878306 426.878306,550 275,550 C123.121694,550 0,426.878306 0,275 C0,123.121694 123.121694,0 275,0 Z" id="Rectangle" fill="#F95C35"></path>
                <g id="hubpsot" transform="translate(121, 116)" fill="#FFFFFF" fill-rule="nonzero">
                    <path d="M223.747553,229.875008 C199.889773,229.875008 180.549884,210.76041 180.549884,187.184646 C180.549884,163.604785 199.889773,144.490187 223.747553,144.490187 C247.605333,144.490187 266.94522,163.604785 266.94522,187.184646 C266.94522,210.76041 247.605333,229.875008 223.747553,229.875008 M236.679496,104.991052 L236.679496,67.0117455 C246.710044,62.3293653 253.735571,52.3009602 253.735571,40.662603 L253.735571,39.7859369 C253.735571,23.7232833 240.438879,10.5814847 224.186907,10.5814847 L223.304053,10.5814847 C207.052081,10.5814847 193.755389,23.7232833 193.755389,39.7859369 L193.755389,40.662603 C193.755389,52.3009602 200.780916,62.3334618 210.811463,67.015842 L210.811463,104.991052 C195.877554,107.272842 182.232694,113.360346 170.979416,122.319546 L65.4721572,41.2033504 C66.1684926,38.5610623 66.6575854,35.8409393 66.6617303,32.981533 C66.6783097,14.7927593 51.7817044,0.0246220598 33.3702628,2.12956691e-05 C14.967111,-0.0204402175 0.0207674203,14.7067313 2.15526379e-05,32.8996016 C-0.0206811198,51.092472 14.8759242,65.8606091 33.2873657,65.881092 C39.2849695,65.8892852 44.8390739,64.2055946 49.7051325,61.4690854 L153.488132,141.266185 C144.663737,154.432564 139.49096,170.20436 139.49096,187.184646 C139.49096,204.959665 145.173555,221.403301 154.773037,234.92608 L123.214118,266.121466 C120.718917,265.379986 118.132527,264.863819 115.388634,264.863819 C100.264062,264.863819 87.9994387,276.981474 87.9994387,291.929861 C87.9994387,306.882344 100.264062,319 115.388634,319 C130.517351,319 142.77783,306.882344 142.77783,291.929861 C142.77783,289.226124 142.255578,286.665768 141.50536,284.199633 L172.724399,253.344262 C186.895655,264.032215 204.544444,270.455638 223.747553,270.455638 C270.281829,270.455638 308,233.172748 308,187.184646 C308,145.551198 277.05452,111.156391 236.679496,104.991052" id="Marketing/Logos/Sprocket"></path>
                </g>
            </g>
        </g>
    </g>
</svg>